<svg version="1.1" xmlns="http://www.w3.org/2000/svg" viewBox="0 0 451.57582985301076 430.19500892451293" width="451.57582985301076" height="430.19500892451293" class="excalidraw-svg"><!-- svg-source:excalidraw --><metadata></metadata><defs><style class="style-fonts">
      </style></defs><rect x="0" y="0" width="451.57582985301076" height="430.19500892451293" fill="#ffffff"></rect><g transform="translate(25.045762875609512 62.26422893632787) rotate(0 9.898528207637867 13.857939490693013)" stroke="none"><path fill="#1e1e1e" d="M -3.07,-1.71 Q -3.07,-1.71 -1.94,-3.75 -0.80,-5.80 2.08,-8.31 4.98,-10.83 7.23,-8.06 9.49,-5.30 10.48,-1.96 11.47,1.36 12.99,5.85 14.51,10.34 15.84,14.08 17.17,17.81 18.89,22.84 20.60,27.88 19.86,29.75 19.11,31.62 19.18,31.93 19.24,32.23 19.23,32.55 19.22,32.87 19.13,33.17 19.05,33.48 18.89,33.75 18.73,34.03 18.52,34.26 18.30,34.49 18.03,34.66 17.76,34.83 17.47,34.93 17.17,35.03 16.85,35.06 16.53,35.09 16.22,35.04 15.91,34.99 15.62,34.87 15.32,34.74 15.07,34.56 14.82,34.37 14.61,34.12 14.41,33.88 14.28,33.59 14.14,33.31 14.35,33.69 14.55,34.08 14.35,33.70 14.15,33.33 14.07,32.91 14.00,32.49 14.06,32.07 14.13,31.65 14.32,31.28 14.51,30.90 14.82,30.60 15.12,30.31 15.51,30.12 15.89,29.94 16.31,29.89 16.74,29.84 17.15,29.92 17.57,30.01 17.93,30.23 18.30,30.44 18.58,30.76 18.86,31.08 19.02,31.47 19.18,31.87 19.21,32.29 19.24,32.71 19.13,33.13 19.02,33.54 18.79,33.89 18.55,34.25 18.22,34.51 17.88,34.77 17.48,34.91 17.08,35.05 16.66,35.05 16.23,35.06 15.83,34.93 15.42,34.80 15.08,34.54 14.74,34.29 14.50,33.94 14.25,33.59 14.14,33.19 14.02,32.78 14.03,32.35 14.05,31.93 14.21,31.53 14.36,31.13 14.63,30.81 14.90,30.48 15.26,30.26 15.62,30.03 16.04,29.94 16.45,29.84 16.87,29.88 17.30,29.92 17.68,30.10 18.07,30.27 18.59,30.94 19.11,31.62 19.18,31.92 19.24,32.23 19.23,32.55 19.22,32.87 19.13,33.17 19.05,33.48 18.89,33.75 18.73,34.03 18.52,34.26 18.30,34.49 18.03,34.66 17.77,34.83 17.47,34.93 17.17,35.03 16.85,35.06 16.53,35.09 16.22,35.04 15.91,34.99 15.62,34.87 15.33,34.74 15.07,34.56 14.82,34.37 14.61,34.12 14.41,33.88 14.28,33.59 14.14,33.31 14.04,31.73 13.93,30.15 12.24,25.16 10.54,20.17 9.19,16.39 7.84,12.60 6.28,7.98 4.71,3.36 5.03,0.48 5.35,-2.39 4.21,-0.34 3.07,1.71 2.82,2.05 2.58,2.39 2.25,2.67 1.93,2.94 1.55,3.13 1.17,3.32 0.75,3.41 0.34,3.50 -0.08,3.49 -0.50,3.48 -0.91,3.37 -1.32,3.26 -1.69,3.05 -2.06,2.85 -2.38,2.56 -2.69,2.27 -2.92,1.91 -3.15,1.56 -3.29,1.16 -3.43,0.76 -3.48,0.33 -3.52,-0.08 -3.45,-0.50 -3.39,-0.92 -3.23,-1.31 -3.07,-1.71 -3.07,-1.71 L -3.07,-1.71 Z"></path></g><g transform="translate(53.55352411360661 54.345406370217574) rotate(0 -21.380820928497826 3.563470154749666)" stroke="none"><path fill="#1e1e1e" d="M -3.52,0 Q -3.52,0 -3.04,-1.24 -2.56,-2.48 -6.13,-1.67 -9.70,-0.86 -14.02,1.36 -18.34,3.59 -22.92,6.56 -27.50,9.52 -31.48,11.59 -35.47,13.65 -38.85,15.09 -42.24,16.53 -42.64,16.67 -43.03,16.82 -43.46,16.84 -43.88,16.85 -44.29,16.73 -44.70,16.61 -45.04,16.37 -45.39,16.12 -45.64,15.78 -45.89,15.43 -46.02,15.03 -46.15,14.62 -46.14,14.20 -46.13,13.77 -45.99,13.37 -45.85,12.97 -45.58,12.64 -45.32,12.31 -44.96,12.08 -44.61,11.84 -44.19,11.74 -43.78,11.63 -43.36,11.66 -42.93,11.69 -42.54,11.86 -42.15,12.02 -41.83,12.31 -41.51,12.59 -41.30,12.96 -41.09,13.32 -41.01,13.74 -40.92,14.16 -40.98,14.58 -41.03,15.00 -41.22,15.38 -41.40,15.76 -41.70,16.07 -42.00,16.37 -42.38,16.56 -42.76,16.75 -43.18,16.81 -43.60,16.88 -44.02,16.80 -44.44,16.72 -44.81,16.52 -45.18,16.31 -45.46,15.99 -45.75,15.68 -45.92,15.29 -46.09,14.90 -46.13,14.48 -46.17,14.06 -46.07,13.64 -45.97,13.23 -45.74,12.87 -45.52,12.51 -45.19,12.24 -44.86,11.97 -44.86,11.97 -44.86,11.97 -41.78,9.68 -38.70,7.40 -35.01,5.50 -31.32,3.60 -26.41,0.45 -21.50,-2.69 -16.36,-5.21 -11.21,-7.73 -6.64,-8.37 -2.07,-9.01 0.24,-7.36 2.56,-5.70 3.04,-2.85 3.52,0 3.47,0.42 3.41,0.84 3.26,1.23 3.11,1.63 2.87,1.98 2.63,2.33 2.31,2.61 2.00,2.89 1.62,3.09 1.24,3.29 0.83,3.39 0.42,3.49 -0.00,3.49 -0.42,3.49 -0.83,3.39 -1.24,3.29 -1.62,3.09 -2.00,2.89 -2.31,2.61 -2.63,2.33 -2.87,1.98 -3.11,1.63 -3.26,1.23 -3.41,0.84 -3.47,0.42 -3.52,-0.00 -3.52,-0.00 L -3.52,0 Z"></path></g><g transform="translate(88.39634340449186 67.01552247599409) rotate(0 13.066057234081995 -8.31476369441583)" stroke="none"><path fill="#1e1e1e" d="M -1.84,-2.99 Q -1.84,-2.99 1.07,-4.78 3.99,-6.56 5.67,-9.13 7.34,-11.70 8.01,-14.67 8.68,-17.64 8.28,-19.83 7.88,-22.02 5.19,-19.15 2.51,-16.28 1.22,-12.77 -0.06,-9.25 -0.61,-5.80 -1.16,-2.35 -0.06,-0.05 1.04,2.24 3.65,3.61 6.27,4.97 10.05,4.94 13.83,4.92 17.61,3.30 21.38,1.69 23.51,-0.15 25.63,-1.99 27.82,-3.20 30.01,-4.40 30.38,-4.62 30.74,-4.83 31.16,-4.91 31.58,-5.00 32.00,-4.94 32.42,-4.89 32.80,-4.70 33.19,-4.52 33.49,-4.22 33.79,-3.92 33.98,-3.54 34.18,-3.16 34.24,-2.74 34.30,-2.32 34.22,-1.90 34.14,-1.48 33.94,-1.11 33.73,-0.74 33.42,-0.45 33.10,-0.17 32.71,-0.00 32.32,0.16 31.90,0.20 31.48,0.24 31.06,0.14 30.65,0.04 30.29,-0.18 29.93,-0.40 29.66,-0.73 29.39,-1.06 29.24,-1.46 29.09,-1.86 29.08,-2.28 29.07,-2.71 29.19,-3.11 29.31,-3.52 29.55,-3.87 29.80,-4.21 30.14,-4.46 30.49,-4.71 30.89,-4.84 31.30,-4.97 31.72,-4.96 32.15,-4.95 32.55,-4.81 32.95,-4.67 33.28,-4.40 33.61,-4.14 33.84,-3.78 34.08,-3.43 34.18,-3.02 34.29,-2.60 34.26,-2.18 34.22,-1.76 34.06,-1.36 33.89,-0.97 33.61,-0.65 33.33,-0.34 33.33,-0.34 33.33,-0.34 31.71,1.56 30.09,3.46 27.06,5.83 24.04,8.19 18.90,10.05 13.77,11.91 8.38,11.49 2.98,11.07 -0.98,8.30 -4.96,5.52 -6.51,1.30 -8.06,-2.92 -7.35,-7.32 -6.65,-11.73 -4.97,-15.99 -3.30,-20.24 -0.80,-23.48 1.68,-26.73 4.86,-27.74 8.04,-28.74 11.14,-26.47 14.24,-24.20 14.87,-20.17 15.51,-16.13 14.33,-11.95 13.16,-7.78 10.50,-4.24 7.84,-0.71 4.84,1.14 1.84,2.99 1.46,3.17 1.07,3.35 0.65,3.43 0.24,3.51 -0.18,3.49 -0.60,3.46 -1.01,3.34 -1.42,3.22 -1.78,3.00 -2.15,2.78 -2.45,2.49 -2.75,2.19 -2.97,1.83 -3.20,1.47 -3.32,1.06 -3.45,0.66 -3.48,0.23 -3.51,-0.18 -3.44,-0.60 -3.37,-1.02 -3.19,-1.40 -3.02,-1.79 -2.76,-2.13 -2.50,-2.47 -2.17,-2.73 -1.84,-2.99 -1.84,-2.99 L -1.84,-2.99 Z"></path></g><g transform="translate(158.87386424287342 32.17270318510879) rotate(0 3.1675290264441287 19.005174158664687)" stroke="none"><path fill="#1e1e1e" d="M -0.85,3.41 Q -0.85,3.41 -3.48,2.73 -6.12,2.05 -8.80,2.89 -11.47,3.74 -14.16,5.09 -16.84,6.45 -13.77,7.61 -10.70,8.78 -4.77,10.99 1.15,13.21 8.21,15.74 15.28,18.28 20.35,21.50 25.42,24.72 26.65,29.44 27.88,34.16 25.14,36.79 22.39,39.43 16.81,40.83 11.22,42.22 5.69,42.71 0.16,43.21 -5.27,42.24 -10.72,41.27 -14.91,39.29 -19.11,37.31 -19.48,37.10 -19.85,36.89 -20.13,36.57 -20.42,36.26 -20.59,35.87 -20.76,35.48 -20.79,35.05 -20.83,34.63 -20.72,34.22 -20.62,33.80 -20.39,33.45 -20.17,33.09 -19.84,32.82 -19.51,32.55 -19.11,32.41 -18.71,32.26 -18.28,32.25 -17.86,32.23 -17.45,32.36 -17.05,32.48 -16.70,32.73 -16.35,32.98 -16.11,33.32 -15.86,33.67 -15.73,34.07 -15.61,34.48 -15.62,34.90 -15.63,35.33 -15.77,35.73 -15.92,36.13 -16.19,36.46 -16.45,36.79 -16.81,37.02 -17.17,37.25 -17.58,37.35 -17.99,37.46 -18.41,37.42 -18.84,37.39 -19.23,37.22 -19.62,37.05 -19.94,36.77 -20.25,36.49 -20.46,36.12 -20.67,35.75 -20.75,35.33 -20.83,34.91 -20.78,34.49 -20.72,34.07 -20.53,33.69 -20.34,33.31 -20.04,33.01 -19.74,32.71 -19.36,32.52 -18.98,32.33 -18.56,32.27 -18.14,32.21 -17.72,32.29 -17.31,32.37 -17.31,32.37 -17.31,32.37 -13.35,33.36 -9.39,34.36 -4.88,35.27 -0.37,36.19 4.67,35.77 9.71,35.34 14.00,34.56 18.29,33.79 19.72,31.92 21.14,30.05 17.01,27.47 12.87,24.89 5.78,22.35 -1.31,19.81 -7.28,17.57 -13.25,15.34 -18.78,11.50 -24.31,7.65 -22.18,3.92 -20.05,0.20 -16.62,-1.43 -13.19,-3.08 -9.00,-3.93 -4.80,-4.78 -1.97,-4.10 0.85,-3.41 1.25,-3.26 1.64,-3.11 1.99,-2.87 2.34,-2.62 2.62,-2.30 2.90,-1.99 3.10,-1.61 3.29,-1.23 3.39,-0.82 3.49,-0.41 3.49,0.01 3.49,0.43 3.39,0.84 3.28,1.26 3.09,1.63 2.89,2.01 2.60,2.32 2.32,2.64 1.97,2.88 1.62,3.12 1.22,3.27 0.83,3.42 0.40,3.47 -0.01,3.52 -0.43,3.46 -0.85,3.41 -0.85,3.41 L -0.85,3.41 Z"></path></g><g transform="translate(204.80303512631303 10) rotate(0 19.005174158664715 21.38082092849777)" stroke="none"><path fill="#1e1e1e" d="M 3.50,-0.31 Q 3.50,-0.31 3.96,4.68 4.41,9.69 4.84,15.26 5.26,20.83 5.67,25.68 6.07,30.52 6.64,33.47 7.21,36.41 9.31,37.41 11.40,38.40 13.85,38.38 16.30,38.36 19.34,37.94 22.38,37.52 25.48,36.91 28.58,36.29 30.53,35.44 32.48,34.58 34.63,33.95 36.78,33.31 37.18,33.17 37.58,33.04 38.01,33.04 38.43,33.04 38.84,33.17 39.24,33.31 39.58,33.57 39.91,33.83 40.15,34.18 40.39,34.53 40.50,34.94 40.62,35.35 40.59,35.77 40.57,36.20 40.41,36.59 40.25,36.99 39.98,37.31 39.70,37.63 39.34,37.85 38.98,38.07 38.56,38.16 38.14,38.25 37.72,38.21 37.30,38.16 36.91,37.98 36.53,37.80 36.22,37.51 35.91,37.22 35.71,36.84 35.52,36.47 35.45,36.05 35.38,35.63 35.45,35.21 35.52,34.79 35.72,34.41 35.92,34.04 36.22,33.75 36.53,33.45 36.92,33.28 37.31,33.10 37.73,33.05 38.15,33.01 38.57,33.10 38.98,33.19 39.34,33.41 39.71,33.63 39.98,33.95 40.26,34.28 40.41,34.67 40.57,35.07 40.59,35.49 40.62,35.92 40.50,36.33 40.39,36.74 40.15,37.09 39.91,37.44 39.57,37.70 39.23,37.95 39.23,37.95 39.23,37.95 37.22,39.52 35.20,41.08 32.59,42.14 29.98,43.19 26.64,43.85 23.29,44.51 19.73,44.95 16.17,45.40 12.75,45.26 9.32,45.12 6.50,43.93 3.67,42.74 2.05,40.39 0.42,38.04 -0.25,34.58 -0.94,31.12 -1.35,26.24 -1.75,21.37 -2.17,15.85 -2.59,10.33 -3.05,5.32 -3.50,0.31 -3.49,-0.10 -3.48,-0.52 -3.36,-0.93 -3.25,-1.34 -3.04,-1.71 -2.83,-2.08 -2.54,-2.39 -2.25,-2.70 -1.89,-2.93 -1.54,-3.16 -1.14,-3.30 -0.73,-3.44 -0.31,-3.48 0.10,-3.52 0.52,-3.45 0.94,-3.39 1.33,-3.23 1.73,-3.06 2.07,-2.81 2.41,-2.56 2.68,-2.23 2.95,-1.91 3.14,-1.53 3.32,-1.14 3.41,-0.73 3.50,-0.31 3.50,-0.31 L 3.50,-0.31 Z"></path></g><g transform="translate(219.05691574531158 27.421409645442623) rotate(0 -19.00517415866466 6.335058052888229)" stroke="none"><path fill="#1e1e1e" d="M 0.69,3.45 Q 0.69,3.45 -3.85,4.36 -8.40,5.27 -13.68,7.39 -18.96,9.51 -23.61,11.36 -28.25,13.20 -32.62,14.54 -36.99,15.88 -37.41,15.98 -37.82,16.08 -38.24,16.04 -38.67,16.00 -39.06,15.83 -39.44,15.65 -39.76,15.37 -40.07,15.08 -40.28,14.71 -40.48,14.34 -40.56,13.92 -40.63,13.50 -40.57,13.08 -40.51,12.66 -40.31,12.28 -40.12,11.90 -39.82,11.60 -39.51,11.31 -39.13,11.12 -38.75,10.94 -38.33,10.88 -37.90,10.83 -37.49,10.92 -37.07,11.00 -36.70,11.22 -36.34,11.43 -36.06,11.75 -35.78,12.07 -35.61,12.46 -35.45,12.85 -35.42,13.28 -35.39,13.70 -35.50,14.11 -35.60,14.52 -35.84,14.88 -36.07,15.23 -36.40,15.50 -36.74,15.76 -37.14,15.90 -37.54,16.04 -37.96,16.05 -38.39,16.06 -38.79,15.93 -39.20,15.80 -39.54,15.54 -39.88,15.29 -40.13,14.95 -40.37,14.60 -40.49,14.19 -40.61,13.78 -40.60,13.36 -40.58,12.93 -40.43,12.54 -40.28,12.14 -40.01,11.81 -39.74,11.48 -39.38,11.26 -39.02,11.03 -39.02,11.03 -39.02,11.03 -34.94,8.85 -30.85,6.66 -26.20,4.81 -21.55,2.96 -15.68,0.66 -9.80,-1.62 -5.24,-2.54 -0.69,-3.45 -0.26,-3.48 0.15,-3.51 0.57,-3.44 0.99,-3.37 1.38,-3.21 1.77,-3.04 2.11,-2.78 2.45,-2.53 2.71,-2.20 2.98,-1.87 3.16,-1.48 3.34,-1.10 3.42,-0.68 3.51,-0.26 3.49,0.15 3.47,0.57 3.35,0.98 3.23,1.39 3.02,1.76 2.80,2.12 2.51,2.43 2.21,2.73 1.85,2.96 1.49,3.18 1.09,3.32 0.69,3.45 0.69,3.45 L 0.69,3.45 Z"></path></g><g transform="translate(264.9860866287512 32.964585441719805) rotate(0 6.335058052888257 8.314763694415802)" stroke="none"><path fill="#1e1e1e" d="M -2.49,-2.49 Q -2.49,-2.49 1.02,-3.66 4.53,-4.84 6.97,-1.55 9.41,1.74 10.45,4.93 11.50,8.13 12.34,10.71 13.18,13.28 14.14,16.84 15.10,20.39 15.19,20.81 15.29,21.22 15.24,21.64 15.20,22.07 15.02,22.45 14.85,22.84 14.56,23.15 14.27,23.46 13.89,23.66 13.52,23.86 13.10,23.93 12.68,24.00 12.26,23.94 11.84,23.87 11.46,23.67 11.09,23.48 10.79,23.17 10.50,22.86 10.32,22.48 10.14,22.09 10.09,21.67 10.04,21.25 10.13,20.83 10.22,20.42 10.44,20.05 10.65,19.69 10.98,19.41 11.30,19.13 11.69,18.97 12.09,18.81 12.51,18.79 12.94,18.76 13.35,18.87 13.76,18.99 14.11,19.22 14.46,19.46 14.72,19.80 14.98,20.13 15.12,20.54 15.25,20.94 15.26,21.36 15.26,21.79 15.13,22.19 14.99,22.59 14.74,22.93 14.48,23.27 14.13,23.51 13.78,23.75 13.37,23.87 12.96,23.99 12.54,23.96 12.11,23.94 11.72,23.79 11.32,23.63 11.00,23.36 10.67,23.09 10.45,22.72 10.23,22.36 10.23,22.36 10.23,22.36 8.36,18.91 6.48,15.47 5.64,12.86 4.79,10.26 4.00,7.68 3.22,5.10 1.62,2.69 0.01,0.28 1.25,1.38 2.49,2.49 2.15,2.75 1.82,3.01 1.43,3.18 1.04,3.36 0.63,3.43 0.21,3.51 -0.21,3.49 -0.63,3.46 -1.04,3.33 -1.44,3.21 -1.80,2.99 -2.17,2.77 -2.47,2.47 -2.77,2.17 -2.99,1.80 -3.21,1.44 -3.33,1.04 -3.46,0.63 -3.49,0.21 -3.51,-0.21 -3.43,-0.63 -3.36,-1.04 -3.18,-1.43 -3.01,-1.82 -2.75,-2.15 -2.49,-2.49 -2.49,-2.49 L -2.49,-2.49 Z"></path></g><g transform="translate(292.70196561013734 17.12694030949922) rotate(0 14.25388061899855 13.461998362387504)" stroke="none"><path fill="#1e1e1e" d="M 3.02,-1.81 Q 3.02,-1.81 4.38,0.47 5.75,2.75 6.94,6.10 8.13,9.44 8.85,12.49 9.57,15.54 9.88,17.84 10.19,20.13 8.90,23.16 7.60,26.18 5.67,25.21 3.74,24.25 2.94,22.26 2.15,20.28 1.86,17.35 1.57,14.42 1.73,11.61 1.89,8.80 3.76,5.82 5.62,2.84 9.30,2.01 12.98,1.18 17.05,3.52 21.13,5.86 23.99,9.41 26.85,12.96 28.37,16.37 29.88,19.78 29.31,23.46 28.74,27.13 28.64,27.55 28.54,27.96 28.31,28.32 28.08,28.67 27.75,28.94 27.42,29.21 27.02,29.35 26.62,29.50 26.20,29.51 25.77,29.52 25.36,29.40 24.96,29.27 24.61,29.02 24.27,28.78 24.02,28.43 23.77,28.08 23.65,27.68 23.52,27.27 23.54,26.85 23.55,26.42 23.69,26.02 23.84,25.62 24.11,25.29 24.37,24.96 24.73,24.73 25.09,24.51 25.50,24.40 25.92,24.30 26.34,24.34 26.76,24.37 27.15,24.54 27.54,24.71 27.86,24.99 28.18,25.27 28.38,25.64 28.59,26.02 28.67,26.43 28.75,26.85 28.70,27.27 28.64,27.69 28.45,28.07 28.26,28.45 27.96,28.75 27.66,29.05 27.28,29.24 26.90,29.43 26.47,29.49 26.05,29.54 25.64,29.46 25.22,29.38 24.85,29.17 24.48,28.96 24.20,28.65 23.91,28.33 23.75,27.94 23.58,27.55 23.54,27.13 23.51,26.70 23.51,26.70 23.51,26.70 23.43,24.45 23.35,22.19 22.31,19.71 21.26,17.24 19.18,14.43 17.11,11.63 14.91,9.74 12.71,7.85 10.75,8.71 8.80,9.57 8.69,11.69 8.59,13.82 7.44,16.69 6.29,19.55 4.49,18.34 2.70,17.13 2.09,14.43 1.47,11.72 0.58,9.03 -0.29,6.35 -1.65,4.08 -3.02,1.81 -3.19,1.42 -3.36,1.03 -3.44,0.61 -3.51,0.20 -3.48,-0.22 -3.46,-0.64 -3.33,-1.05 -3.20,-1.45 -2.98,-1.81 -2.76,-2.18 -2.46,-2.48 -2.16,-2.77 -1.79,-2.99 -1.43,-3.21 -1.02,-3.34 -0.62,-3.46 -0.19,-3.49 0.22,-3.51 0.64,-3.43 1.05,-3.35 1.44,-3.18 1.83,-3.00 2.16,-2.74 2.49,-2.48 2.75,-2.14 3.02,-1.81 3.02,-1.81 L 3.02,-1.81 Z"></path></g><g transform="translate(354.46878162579753 21.87823384916544) rotate(0 -1.9797056415275165 17.421409645442623)" stroke="none"><path fill="#1e1e1e" d="M -3.50,-0.31 Q -3.50,-0.31 -3.19,-2.52 -2.88,-4.73 -5.65,-5.92 -8.42,-7.10 -10.44,-6.21 -12.47,-5.31 -13.93,-3.41 -15.39,-1.51 -15.76,1.14 -16.12,3.80 -15.14,5.81 -14.16,7.83 -9.86,7.40 -5.55,6.98 -3.60,4.67 -1.65,2.36 -0.08,0.07 1.48,-2.22 1.81,-2.49 2.14,-2.75 2.52,-2.93 2.90,-3.12 3.32,-3.20 3.74,-3.28 4.16,-3.27 4.58,-3.25 4.99,-3.13 5.40,-3.01 5.77,-2.80 6.13,-2.59 6.44,-2.29 6.74,-2.00 6.97,-1.64 7.20,-1.28 7.33,-0.88 7.47,-0.47 7.50,-0.05 7.53,0.36 7.46,0.78 7.39,1.20 7.23,1.59 7.06,1.98 6.81,2.32 6.55,2.66 10.12,5.75 13.69,8.83 15.74,13.97 17.79,19.10 18.94,24.53 20.08,29.95 19.03,34.60 17.98,39.24 14.31,42.54 10.64,45.83 5.39,47.20 0.14,48.57 -5.73,47.18 -11.62,45.79 -15.96,43.05 -20.31,40.30 -21.86,36.03 -23.42,31.76 -21.01,28.20 -18.61,24.64 -12.83,21.49 -7.05,18.35 -0.60,14.29 5.83,10.24 12.01,6.05 18.19,1.87 18.57,1.67 18.94,1.47 19.36,1.40 19.78,1.33 20.20,1.39 20.62,1.46 21.00,1.66 21.37,1.86 21.67,2.16 21.96,2.47 22.14,2.86 22.32,3.24 22.37,3.66 22.42,4.09 22.33,4.50 22.24,4.92 22.02,5.28 21.80,5.65 21.48,5.92 21.16,6.20 20.76,6.36 20.37,6.52 19.94,6.54 19.52,6.57 19.11,6.45 18.70,6.34 18.35,6.11 17.99,5.87 17.73,5.53 17.48,5.19 17.34,4.79 17.20,4.39 17.20,3.96 17.20,3.54 17.33,3.14 17.47,2.73 17.72,2.39 17.98,2.05 18.33,1.81 18.68,1.57 19.09,1.46 19.50,1.34 19.92,1.37 20.35,1.39 20.74,1.54 21.14,1.70 21.46,1.97 21.79,2.25 22.01,2.61 22.23,2.97 22.32,3.39 22.41,3.80 22.37,4.22 22.33,4.65 22.15,5.03 21.97,5.42 21.68,5.73 21.39,6.04 21.39,6.04 21.39,6.04 15.48,11.12 9.58,16.20 2.88,20.40 -3.80,24.60 -8.58,26.94 -13.36,29.28 -14.71,32.09 -16.07,34.89 -12.88,36.96 -9.70,39.02 -5.38,40.37 -1.05,41.72 2.72,40.96 6.50,40.20 9.07,38.49 11.64,36.78 12.42,33.94 13.19,31.09 12.22,26.39 11.24,21.68 9.36,16.92 7.49,12.16 5.77,8.87 4.06,5.59 2.77,1.68 1.48,-2.22 1.81,-2.49 2.13,-2.75 2.52,-2.93 2.90,-3.12 3.32,-3.20 3.73,-3.28 4.16,-3.27 4.58,-3.25 4.99,-3.13 5.40,-3.01 5.77,-2.80 6.13,-2.59 6.44,-2.29 6.74,-2.00 6.97,-1.64 7.20,-1.28 7.33,-0.88 7.47,-0.47 7.50,-0.05 7.53,0.36 7.46,0.78 7.39,1.20 7.23,1.59 7.06,1.98 6.81,2.32 6.55,2.66 4.98,4.95 3.42,7.24 0.13,10.36 -3.14,13.49 -7.65,14.51 -12.16,15.54 -15.95,13.52 -19.74,11.50 -21.35,7.31 -22.96,3.12 -21.92,-1.30 -20.87,-5.74 -17.95,-8.74 -15.03,-11.75 -11.01,-12.76 -7.00,-13.77 -3.27,-12.29 0.45,-10.80 2.12,-8.04 3.80,-5.28 3.65,-2.48 3.50,0.31 3.41,0.73 3.32,1.14 3.14,1.53 2.95,1.91 2.68,2.23 2.41,2.56 2.07,2.81 1.73,3.06 1.33,3.23 0.94,3.39 0.52,3.45 0.10,3.52 -0.31,3.48 -0.73,3.44 -1.14,3.30 -1.54,3.16 -1.89,2.93 -2.25,2.70 -2.54,2.39 -2.83,2.08 -3.04,1.71 -3.25,1.34 -3.36,0.93 -3.48,0.52 -3.49,0.10 -3.50,-0.31 -3.50,-0.31 L -3.50,-0.31 Z"></path></g><g transform="translate(63.05611119293894 169.16833357881677) rotate(0 7.918822566110293 10.294469335943404)" stroke="none"><path fill="#1e1e1e" d="M -2.29,-2.67 Q -2.29,-2.67 -0.75,-3.95 0.78,-5.24 -1.31,-6.52 -3.40,-7.79 -4.71,-5.81 -6.02,-3.84 -7.07,-0.37 -8.11,3.08 -8.38,7.53 -8.64,11.98 -7.71,16.02 -6.78,20.07 -4.69,22.69 -2.59,25.31 0.96,26.68 4.51,28.04 9.00,27.80 13.49,27.55 16.69,26.04 19.88,24.54 21.68,23.31 23.48,22.08 25.49,20.77 27.50,19.46 27.85,19.22 28.20,18.99 28.61,18.88 29.02,18.76 29.45,18.79 29.87,18.81 30.26,18.97 30.66,19.13 30.98,19.41 31.30,19.68 31.52,20.05 31.74,20.41 31.83,20.83 31.92,21.24 31.87,21.67 31.82,22.09 31.64,22.47 31.46,22.86 31.17,23.17 30.88,23.47 30.50,23.67 30.12,23.87 29.70,23.94 29.28,24.00 28.86,23.93 28.45,23.86 28.07,23.66 27.70,23.46 27.41,23.15 27.11,22.84 26.94,22.45 26.76,22.07 26.72,21.65 26.67,21.22 26.77,20.81 26.86,20.39 27.08,20.03 27.30,19.67 27.62,19.39 27.95,19.12 28.35,18.96 28.74,18.81 29.17,18.79 29.59,18.77 30.00,18.88 30.41,19.00 30.76,19.24 31.11,19.48 31.36,19.82 31.62,20.16 31.75,20.56 31.89,20.96 31.89,21.39 31.88,21.81 31.75,22.21 31.61,22.62 31.35,22.95 31.09,23.29 31.09,23.29 31.09,23.29 29.24,25.61 27.39,27.93 25.04,29.46 22.69,30.99 18.27,32.77 13.84,34.55 7.90,34.55 1.96,34.54 -2.95,32.18 -7.87,29.81 -10.71,25.81 -13.56,21.80 -14.61,16.68 -15.66,11.56 -15.23,6.22 -14.80,0.88 -13.14,-3.67 -11.48,-8.24 -8.57,-11.22 -5.66,-14.20 -2.24,-14.63 1.18,-15.06 3.74,-13.25 6.30,-11.44 7.06,-8.44 7.83,-5.43 6.71,-2.82 5.59,-0.21 3.94,1.22 2.29,2.67 1.93,2.90 1.58,3.14 1.18,3.28 0.78,3.43 0.36,3.47 -0.05,3.52 -0.47,3.46 -0.89,3.40 -1.29,3.24 -1.68,3.09 -2.03,2.84 -2.37,2.59 -2.65,2.27 -2.93,1.95 -3.12,1.57 -3.31,1.19 -3.40,0.78 -3.50,0.36 -3.49,-0.05 -3.48,-0.48 -3.38,-0.89 -3.27,-1.30 -3.06,-1.67 -2.86,-2.04 -2.57,-2.36 -2.29,-2.67 -2.29,-2.67 L -2.29,-2.67 Z"></path></g><g transform="translate(84.43693212143671 147.787512650319) rotate(0 23.360526570025343 15.045762875609569)" stroke="none"><path fill="#1e1e1e" d="M -2.25,-2.70 Q -2.25,-2.70 0.29,-3.97 2.84,-5.24 4.93,-4.60 7.02,-3.96 9.04,-1.35 11.06,1.24 12.53,4.74 14.01,8.23 15.29,12.21 16.57,16.19 17.58,20.21 18.59,24.24 19.24,26.81 19.88,29.39 20.15,30.25 20.43,31.12 20.48,31.54 20.53,31.96 20.48,32.38 20.43,32.80 20.29,33.20 20.14,33.60 19.90,33.95 19.66,34.30 19.34,34.58 19.02,34.87 18.65,35.06 18.27,35.26 17.86,35.37 17.45,35.47 17.02,35.47 16.60,35.47 16.19,35.37 15.77,35.27 15.40,35.08 15.02,34.88 14.70,34.60 14.38,34.32 14.14,33.97 13.90,33.62 13.75,33.22 13.59,32.83 13.16,27.16 12.73,21.49 13.60,16.88 14.46,12.26 17.22,8.67 19.98,5.08 23.99,3.56 27.99,2.05 32.99,5.50 37.99,8.95 41.26,13.72 44.54,18.49 46.17,22.30 47.81,26.11 46.93,30.47 46.06,34.82 45.87,35.20 45.68,35.58 45.38,35.88 45.08,36.18 44.70,36.37 44.32,36.56 43.89,36.61 43.47,36.67 43.06,36.59 42.64,36.51 42.27,36.30 41.90,36.09 41.62,35.77 41.33,35.46 41.17,35.07 41.00,34.68 40.96,34.25 40.93,33.83 41.03,33.42 41.14,33.00 41.37,32.65 41.60,32.29 41.93,32.02 42.26,31.76 42.66,31.61 43.06,31.47 43.48,31.45 43.91,31.44 44.31,31.57 44.72,31.69 45.06,31.94 45.41,32.19 45.66,32.54 45.90,32.88 46.03,33.29 46.15,33.70 46.14,34.12 46.13,34.55 45.98,34.94 45.83,35.34 45.57,35.67 45.30,36.00 44.94,36.23 44.58,36.46 44.17,36.56 43.76,36.66 43.33,36.63 42.91,36.59 42.52,36.43 42.13,36.26 41.81,35.97 41.50,35.69 41.29,35.32 41.08,34.95 41.00,34.53 40.92,34.11 40.98,33.69 41.04,33.27 41.04,33.27 41.04,33.27 41.16,30.93 41.28,28.59 39.97,25.49 38.67,22.38 36.10,18.38 33.53,14.38 29.37,12.05 25.22,9.72 23.20,11.86 21.19,14.00 20.47,17.52 19.75,21.03 20.09,26.08 20.43,31.12 20.48,31.54 20.53,31.96 20.48,32.38 20.43,32.80 20.29,33.20 20.14,33.60 19.90,33.95 19.66,34.30 19.34,34.58 19.02,34.86 18.65,35.06 18.27,35.26 17.86,35.37 17.45,35.47 17.02,35.47 16.60,35.47 16.19,35.37 15.77,35.27 15.40,35.08 15.02,34.88 14.70,34.60 14.38,34.32 14.14,33.97 13.90,33.62 13.75,33.23 13.59,32.83 13.32,31.96 13.05,31.10 12.40,28.52 11.76,25.95 10.81,22.15 9.86,18.34 8.67,14.62 7.49,10.90 6.36,8.05 5.24,5.21 3.93,2.95 2.61,0.68 2.43,1.69 2.25,2.70 1.89,2.93 1.54,3.16 1.14,3.30 0.73,3.44 0.31,3.48 -0.10,3.52 -0.52,3.45 -0.94,3.39 -1.33,3.23 -1.73,3.06 -2.07,2.81 -2.41,2.56 -2.68,2.23 -2.95,1.91 -3.14,1.53 -3.32,1.14 -3.41,0.73 -3.50,0.31 -3.49,-0.10 -3.48,-0.53 -3.36,-0.93 -3.25,-1.34 -3.04,-1.71 -2.83,-2.08 -2.54,-2.39 -2.25,-2.70 -2.25,-2.70 L -2.25,-2.70 Z"></path></g><g transform="translate(151.7469239333742 151.74692393337415) rotate(0 6.335058052888201 8.31476369441583)" stroke="none"><path fill="#1e1e1e" d="M -3.39,-0.92 Q -3.39,-0.92 -2.71,-3.28 -2.02,-5.63 -4.18,-1.87 -6.35,1.89 -7.10,4.56 -7.86,7.23 -7.36,9.75 -6.85,12.28 -5.07,10.85 -3.28,9.43 -1.59,6.59 0.10,3.76 1.66,0.86 3.23,-2.02 4.59,-3.28 5.95,-4.53 6.20,-4.88 6.44,-5.23 6.76,-5.50 7.08,-5.78 7.46,-5.97 7.84,-6.16 8.26,-6.26 8.67,-6.36 9.09,-6.35 9.52,-6.34 9.93,-6.24 10.34,-6.13 10.71,-5.93 11.09,-5.72 11.40,-5.44 11.71,-5.15 11.95,-4.80 12.19,-4.45 12.33,-4.05 12.48,-3.65 12.52,-3.23 12.57,-2.80 12.51,-2.38 12.45,-1.96 12.30,-1.57 12.14,-1.17 16.20,3.68 20.25,8.54 22.39,12.69 24.53,16.83 26.10,20.88 27.67,24.93 27.80,25.33 27.93,25.74 27.93,26.16 27.92,26.59 27.78,26.99 27.64,27.39 27.38,27.72 27.11,28.06 26.76,28.29 26.40,28.53 25.99,28.63 25.58,28.74 25.16,28.71 24.73,28.68 24.34,28.52 23.95,28.36 23.63,28.08 23.31,27.80 23.10,27.43 22.88,27.07 22.80,26.65 22.71,26.23 22.76,25.81 22.81,25.39 23.00,25.01 23.18,24.62 23.48,24.32 23.78,24.01 24.15,23.82 24.53,23.63 24.95,23.56 25.37,23.50 25.79,23.58 26.21,23.65 26.58,23.85 26.95,24.06 27.24,24.37 27.53,24.68 27.70,25.07 27.88,25.46 27.92,25.88 27.96,26.31 27.86,26.72 27.76,27.13 27.54,27.49 27.31,27.86 26.99,28.13 26.66,28.40 26.26,28.55 25.86,28.70 25.44,28.72 25.01,28.73 24.61,28.61 24.20,28.50 23.85,28.25 23.50,28.01 23.25,27.67 23.00,27.32 23.00,27.32 23.00,27.33 20.63,23.69 18.27,20.06 16.15,15.96 14.04,11.86 11.88,7.77 9.72,3.68 7.83,-0.42 5.95,-4.53 6.20,-4.88 6.44,-5.23 6.76,-5.50 7.08,-5.78 7.46,-5.97 7.84,-6.16 8.26,-6.26 8.67,-6.36 9.09,-6.35 9.52,-6.34 9.93,-6.24 10.34,-6.13 10.71,-5.93 11.09,-5.73 11.40,-5.44 11.71,-5.15 11.95,-4.80 12.19,-4.45 12.33,-4.05 12.48,-3.65 12.52,-3.23 12.57,-2.81 12.51,-2.38 12.45,-1.96 12.30,-1.57 12.14,-1.17 10.74,0.12 9.35,1.42 7.65,4.55 5.95,7.68 3.16,11.52 0.37,15.35 -3.01,16.77 -6.40,18.18 -9.90,15.78 -13.41,13.38 -14.02,9.46 -14.63,5.53 -13.46,1.83 -12.29,-1.86 -10.17,-4.96 -8.04,-8.07 -5.16,-9.75 -2.28,-11.42 0.21,-10.60 2.71,-9.78 3.73,-7.08 4.75,-4.38 4.07,-1.72 3.39,0.92 3.23,1.31 3.07,1.71 2.82,2.05 2.57,2.39 2.25,2.67 1.92,2.94 1.54,3.13 1.16,3.32 0.75,3.41 0.33,3.50 -0.08,3.49 -0.51,3.48 -0.92,3.37 -1.32,3.26 -1.70,3.05 -2.07,2.84 -2.38,2.55 -2.69,2.26 -2.92,1.91 -3.15,1.55 -3.29,1.15 -3.43,0.75 -3.48,0.33 -3.52,-0.08 -3.45,-0.50 -3.39,-0.92 -3.39,-0.92 L -3.39,-0.92 Z"></path></g><g transform="translate(183.42221419781526 127.99045623504327) rotate(0 6.730999181193795 10.294469335943404)" stroke="none"><path fill="#1e1e1e" d="M 2.88,-2.01 Q 2.88,-2.01 6.07,2.53 9.26,7.08 11.38,10.74 13.49,14.40 13.76,15.58 14.03,16.76 14.35,17.03 14.67,17.31 14.89,17.67 15.11,18.04 15.20,18.45 15.29,18.87 15.24,19.29 15.19,19.71 15.01,20.10 14.83,20.48 14.54,20.79 14.25,21.10 13.87,21.30 13.49,21.49 13.07,21.56 12.65,21.63 12.23,21.56 11.82,21.49 11.44,21.28 11.07,21.08 10.78,20.77 10.48,20.46 10.31,20.08 10.13,19.69 10.09,19.27 10.04,18.85 10.14,18.43 10.23,18.02 10.45,17.65 10.67,17.29 11.00,17.02 11.32,16.74 11.72,16.59 12.11,16.43 12.54,16.41 12.96,16.39 13.37,16.51 13.78,16.62 14.13,16.86 14.48,17.10 14.74,17.44 14.99,17.78 15.13,18.18 15.26,18.59 15.26,19.01 15.26,19.44 15.12,19.84 14.98,20.24 14.72,20.58 14.46,20.92 14.11,21.15 13.76,21.39 13.35,21.50 12.94,21.61 12.51,21.59 12.09,21.56 11.69,21.40 11.30,21.24 11.30,21.24 11.30,21.24 9.35,19.58 7.40,17.92 5.44,14.52 3.48,11.12 0.30,6.57 -2.88,2.01 -3.08,1.64 -3.28,1.27 -3.38,0.85 -3.49,0.44 -3.49,0.02 -3.49,-0.40 -3.40,-0.81 -3.30,-1.22 -3.10,-1.60 -2.91,-1.98 -2.63,-2.30 -2.35,-2.62 -2.00,-2.86 -1.65,-3.10 -1.26,-3.26 -0.86,-3.41 -0.44,-3.46 -0.02,-3.52 0.39,-3.47 0.82,-3.42 1.21,-3.27 1.61,-3.12 1.96,-2.89 2.31,-2.65 2.60,-2.33 2.88,-2.01 2.88,-2.01 L 2.88,-2.01 Z"></path></g><g transform="translate(181.04656742798227 112.15281110282274) rotate(0 4.355352411360627 3.9594112830551182)" stroke="none"><path fill="#1e1e1e" d="M 1.23,-3.29 Q 1.23,-3.29 3.18,-2.51 5.13,-1.74 7.03,0.41 8.92,2.57 9.92,4.93 10.91,7.28 11.08,7.67 11.25,8.06 11.29,8.48 11.32,8.90 11.22,9.32 11.12,9.73 10.90,10.09 10.67,10.45 10.34,10.72 10.01,10.98 9.61,11.13 9.21,11.28 8.79,11.30 8.37,11.31 7.96,11.19 7.55,11.07 7.21,10.82 6.86,10.57 6.61,10.23 6.36,9.89 6.23,9.48 6.11,9.07 6.11,8.65 6.12,8.22 6.27,7.83 6.41,7.43 6.68,7.09 6.94,6.76 7.30,6.53 7.65,6.30 8.07,6.19 8.48,6.09 8.90,6.12 9.33,6.15 9.72,6.32 10.11,6.48 10.43,6.77 10.74,7.05 10.96,7.42 11.17,7.79 11.25,8.20 11.33,8.62 11.28,9.04 11.22,9.46 11.03,9.84 10.85,10.23 10.55,10.53 10.25,10.83 9.87,11.02 9.49,11.21 9.07,11.27 8.65,11.33 8.23,11.25 7.81,11.18 7.44,10.97 7.07,10.76 6.79,10.45 6.50,10.13 6.50,10.13 6.50,10.13 4.32,7.30 2.15,4.47 0.45,3.88 -1.23,3.29 -1.61,3.10 -1.99,2.90 -2.30,2.62 -2.62,2.34 -2.87,1.99 -3.11,1.64 -3.26,1.25 -3.41,0.85 -3.46,0.43 -3.52,0.01 -3.47,-0.40 -3.42,-0.83 -3.27,-1.22 -3.12,-1.62 -2.88,-1.97 -2.64,-2.32 -2.32,-2.60 -2.01,-2.89 -1.63,-3.09 -1.26,-3.28 -0.84,-3.39 -0.43,-3.49 -0.01,-3.49 0.41,-3.49 0.82,-3.39 1.23,-3.29 1.23,-3.29 L 1.23,-3.29 Z"></path></g><g transform="translate(214.30562220564536 117.69598689909992) rotate(0 23.75646769833088 11.086351592554394)" stroke="none"><path fill="#1e1e1e" d="M 2.11,-2.81 Q 2.11,-2.81 3.97,-1.40 5.83,0.00 8.41,4.26 10.98,8.52 13.30,13.17 15.62,17.81 14.80,20.18 13.97,22.54 13.75,19.46 13.52,16.38 13.87,11.56 14.22,6.74 16.42,2.03 18.63,-2.68 22.95,-4.51 27.27,-6.35 31.18,-5.59 35.08,-4.83 39.59,0.74 44.09,6.31 46.11,11.61 48.14,16.91 48.71,21.64 49.28,26.37 49.31,26.80 49.33,27.22 49.21,27.63 49.09,28.04 48.85,28.39 48.61,28.74 48.27,28.99 47.93,29.25 47.53,29.38 47.12,29.51 46.70,29.51 46.27,29.51 45.87,29.37 45.47,29.23 45.13,28.97 44.80,28.71 44.56,28.36 44.32,28.01 44.21,27.60 44.10,27.19 44.13,26.76 44.15,26.34 44.31,25.94 44.47,25.55 44.75,25.23 45.03,24.91 45.39,24.69 45.76,24.47 46.18,24.38 46.59,24.30 47.01,24.34 47.44,24.39 47.82,24.57 48.20,24.75 48.51,25.05 48.82,25.34 49.01,25.72 49.21,26.10 49.28,26.52 49.34,26.94 49.27,27.36 49.20,27.77 49.00,28.15 48.80,28.52 48.49,28.81 48.18,29.10 47.79,29.28 47.40,29.45 46.98,29.50 46.56,29.54 46.14,29.45 45.73,29.35 45.36,29.13 45.00,28.91 44.73,28.58 44.46,28.26 44.30,27.86 44.15,27.47 44.15,27.47 44.15,27.47 42.84,23.40 41.53,19.34 39.95,14.88 38.37,10.42 33.68,5.38 28.98,0.34 26.36,0.87 23.74,1.40 22.47,4.39 21.21,7.38 20.88,12.12 20.55,16.87 18.38,22.29 16.21,27.72 12.77,24.34 9.32,20.96 7.09,16.48 4.85,12.00 3.15,8.73 1.45,5.46 -0.33,4.13 -2.11,2.81 -2.41,2.52 -2.72,2.23 -2.95,1.87 -3.18,1.51 -3.31,1.11 -3.45,0.70 -3.48,0.28 -3.51,-0.13 -3.45,-0.55 -3.38,-0.97 -3.21,-1.36 -3.05,-1.75 -2.79,-2.09 -2.54,-2.43 -2.21,-2.70 -1.88,-2.97 -1.50,-3.15 -1.11,-3.33 -0.70,-3.42 -0.28,-3.51 0.13,-3.49 0.56,-3.47 0.96,-3.35 1.37,-3.24 1.74,-3.02 2.11,-2.81 2.11,-2.81 L 2.11,-2.81 Z"></path></g><g transform="translate(87.60446114788078 284.783143044027) rotate(0 15.045762875609569 16.62952738883166)" stroke="none"><path fill="#1e1e1e" d="M -3.38,-0.96 Q -3.38,-0.96 -2.10,-0.78 -0.82,-0.59 -1.43,2.67 -2.04,5.93 -2.44,9.59 -2.84,13.24 -1.76,18.02 -0.67,22.81 2.61,26.91 5.91,31.01 10.78,33.01 15.66,35.01 20.01,34.01 24.37,33.00 26.94,30.17 29.52,27.34 30.13,23.40 30.74,19.47 28.54,14.66 26.34,9.85 21.70,5.51 17.05,1.17 12.74,-0.36 8.43,-1.90 5.61,-0.22 2.79,1.44 2.08,6.60 1.38,11.76 0.81,17.40 0.25,23.03 0.17,23.45 0.09,23.86 -0.11,24.23 -0.32,24.60 -0.64,24.89 -0.95,25.17 -1.34,25.34 -1.74,25.51 -2.16,25.54 -2.58,25.58 -2.99,25.48 -3.41,25.37 -3.77,25.14 -4.12,24.92 -4.39,24.58 -4.66,24.25 -4.80,23.85 -4.95,23.46 -4.96,23.03 -4.97,22.61 -4.85,22.20 -4.72,21.79 -4.48,21.45 -4.23,21.10 -3.88,20.86 -3.54,20.61 -3.13,20.48 -2.73,20.36 -2.30,20.37 -1.88,20.38 -1.48,20.53 -1.08,20.67 -0.75,20.94 -0.42,21.20 -0.19,21.56 0.03,21.92 0.13,22.33 0.24,22.75 0.20,23.17 0.17,23.59 0.00,23.98 -0.16,24.37 -0.44,24.69 -0.72,25.01 -1.09,25.22 -1.46,25.42 -1.88,25.50 -2.30,25.59 -2.72,25.53 -3.14,25.47 -3.52,25.28 -3.90,25.09 -4.20,24.79 -4.50,24.49 -4.69,24.11 -4.88,23.73 -4.94,23.31 -5.00,22.89 -5.00,22.89 -5.00,22.89 -5.25,16.59 -5.50,10.29 -3.64,3.60 -1.77,-3.09 3.58,-5.75 8.95,-8.41 15.33,-6.22 21.71,-4.02 27.22,1.49 32.73,7.00 35.15,13.60 37.57,20.21 36.19,25.97 34.80,31.74 30.54,35.67 26.28,39.60 19.91,40.57 13.53,41.54 7.09,38.55 0.65,35.55 -3.39,30.05 -7.44,24.54 -8.63,18.50 -9.82,12.47 -9.16,7.81 -8.50,3.15 -6.87,-0.20 -5.24,-3.56 -1.29,-4.67 2.64,-5.78 3.01,-2.40 3.38,0.96 3.22,1.35 3.05,1.75 2.80,2.09 2.54,2.43 2.22,2.70 1.89,2.97 1.51,3.15 1.12,3.33 0.71,3.42 0.29,3.50 -0.12,3.49 -0.55,3.47 -0.96,3.36 -1.36,3.24 -1.73,3.03 -2.10,2.82 -2.41,2.53 -2.72,2.23 -2.94,1.87 -3.17,1.52 -3.31,1.11 -3.44,0.71 -3.48,0.29 -3.51,-0.12 -3.45,-0.54 -3.38,-0.96 -3.38,-0.96 L -3.38,-0.96 Z"></path></g><g transform="translate(135.90927880115362 283.19937853080495) rotate(0 18.609233030359178 7.91882256611035)" stroke="none"><path fill="#1e1e1e" d="M 3.15,-1.57 Q 3.15,-1.57 4.74,1.61 6.33,4.79 7.72,7.79 9.10,10.79 10.12,12.93 11.15,15.07 11.59,15.77 12.03,16.46 12.16,16.86 12.30,17.26 12.33,17.69 12.37,18.11 12.30,18.53 12.23,18.95 12.07,19.34 11.90,19.73 11.65,20.07 11.39,20.41 11.07,20.68 10.74,20.95 10.36,21.13 9.97,21.32 9.56,21.40 9.14,21.49 8.72,21.47 8.29,21.46 7.88,21.34 7.48,21.22 7.11,21.01 6.74,20.80 6.43,20.51 6.13,20.21 5.90,19.85 5.67,19.50 3.66,14.42 1.65,9.35 0.42,5.33 -0.80,1.30 -1.57,-2.47 -2.33,-6.25 0.22,-9.80 2.78,-13.35 7.56,-9.99 12.35,-6.64 13.94,-3.12 15.52,0.38 16.19,3.17 16.85,5.96 16.46,8.40 16.07,10.84 15.72,10.91 15.38,10.98 15.27,11.39 15.15,11.80 14.95,12.17 14.74,12.54 14.46,12.85 14.17,13.16 13.81,13.40 13.46,13.63 13.06,13.77 12.66,13.91 12.23,13.96 11.81,14.00 11.39,13.94 10.97,13.88 10.58,13.72 10.18,13.56 9.84,13.31 9.50,13.06 9.22,12.74 8.95,12.41 8.76,12.03 8.57,11.65 8.48,11.24 8.38,10.82 8.39,10.40 8.40,9.98 10.80,7.45 13.19,4.92 16.96,4.70 20.74,4.48 24.99,5.42 29.25,6.36 32.52,8.42 35.79,10.49 36.47,13.89 37.16,17.30 34.54,20.27 31.93,23.24 27.59,25.54 23.26,27.83 17.74,29.08 12.23,30.33 7.11,30.71 2.00,31.10 1.58,31.09 1.15,31.09 0.75,30.96 0.35,30.82 0.01,30.57 -0.32,30.31 -0.56,29.96 -0.80,29.60 -0.91,29.19 -1.02,28.79 -1.00,28.36 -0.98,27.94 -0.82,27.54 -0.66,27.15 -0.39,26.82 -0.11,26.50 0.24,26.28 0.61,26.06 1.02,25.97 1.44,25.88 1.86,25.93 2.28,25.97 2.67,26.15 3.05,26.33 3.36,26.62 3.67,26.91 3.87,27.29 4.07,27.67 4.14,28.09 4.21,28.50 4.14,28.92 4.07,29.34 3.87,29.72 3.67,30.09 3.36,30.39 3.05,30.68 2.67,30.86 2.28,31.03 1.86,31.08 1.43,31.13 1.02,31.03 0.60,30.94 0.24,30.72 -0.11,30.50 -0.39,30.18 -0.66,29.86 -0.82,29.46 -0.98,29.07 -1.00,28.64 -1.02,28.22 -0.91,27.81 -0.79,27.40 -0.56,27.05 -0.32,26.69 0.01,26.44 0.35,26.18 0.75,26.05 1.16,25.91 1.16,25.91 1.16,25.91 5.95,24.68 10.75,23.44 15.42,22.50 20.09,21.55 23.67,19.77 27.24,17.99 29.30,16.71 31.36,15.43 29.46,14.31 27.56,13.18 24.19,12.35 20.82,11.52 18.10,11.25 15.38,10.98 15.27,11.39 15.15,11.80 14.95,12.17 14.74,12.54 14.46,12.85 14.17,13.16 13.81,13.40 13.46,13.63 13.06,13.77 12.66,13.91 12.23,13.96 11.81,14.00 11.39,13.94 10.97,13.88 10.58,13.72 10.18,13.56 9.84,13.31 9.50,13.06 9.22,12.74 8.95,12.41 8.76,12.03 8.57,11.65 8.48,11.24 8.38,10.82 8.39,10.40 8.40,9.98 9.19,8.67 9.98,7.37 9.51,5.26 9.05,3.14 7.98,0.47 6.91,-2.18 5.71,-4.67 4.51,-7.16 5.22,-3.95 5.93,-0.74 7.10,3.11 8.28,6.97 10.15,11.71 12.03,16.46 12.16,16.86 12.30,17.26 12.33,17.69 12.37,18.11 12.30,18.53 12.23,18.95 12.07,19.34 11.90,19.73 11.65,20.07 11.39,20.41 11.07,20.68 10.74,20.95 10.36,21.13 9.97,21.32 9.56,21.40 9.14,21.49 8.72,21.47 8.29,21.46 7.88,21.34 7.48,21.22 7.11,21.01 6.74,20.80 6.43,20.51 6.13,20.21 5.90,19.85 5.67,19.50 5.23,18.80 4.79,18.11 3.75,15.93 2.70,13.74 1.37,10.84 0.03,7.94 -1.55,4.76 -3.15,1.57 -3.29,1.17 -3.43,0.77 -3.47,0.35 -3.52,-0.06 -3.46,-0.48 -3.40,-0.91 -3.24,-1.30 -3.08,-1.69 -2.83,-2.04 -2.58,-2.38 -2.26,-2.66 -1.94,-2.93 -1.56,-3.12 -1.18,-3.31 -0.76,-3.41 -0.35,-3.50 0.06,-3.49 0.49,-3.48 0.90,-3.37 1.31,-3.26 1.68,-3.06 2.05,-2.85 2.36,-2.57 2.68,-2.28 2.91,-1.92 3.15,-1.57 3.15,-1.57 L 3.15,-1.57 Z"></path></g><g transform="translate(201.63550609986896 262.61043985891826) rotate(0 3.1675290264441855 10.294469335943347)" stroke="none"><path fill="#1e1e1e" d="M -3.47,-0.57 Q -3.47,-0.57 -3.01,-3.30 -2.56,-6.03 -4.87,-6.80 -7.19,-7.57 -9.82,-5.19 -12.45,-2.81 -11.58,-0.69 -10.71,1.43 -8.20,2.91 -5.68,4.39 -1.34,5.97 3.00,7.56 8.11,9.19 13.22,10.82 16.94,12.86 20.66,14.91 22.65,18.58 24.65,22.26 23.09,25.73 21.52,29.20 17.06,31.54 12.59,33.88 7.33,34.76 2.07,35.64 -2.90,35.28 -7.88,34.92 -12.39,32.51 -16.90,30.11 -17.26,29.88 -17.61,29.64 -17.88,29.31 -18.14,28.97 -18.28,28.57 -18.42,28.17 -18.42,27.74 -18.43,27.32 -18.30,26.92 -18.17,26.51 -17.92,26.17 -17.66,25.83 -17.32,25.58 -16.97,25.34 -16.56,25.22 -16.15,25.10 -15.73,25.12 -15.30,25.14 -14.90,25.29 -14.51,25.44 -14.18,25.71 -13.85,25.98 -13.63,26.35 -13.41,26.71 -13.31,27.12 -13.21,27.53 -13.25,27.96 -13.29,28.38 -13.47,28.77 -13.64,29.16 -13.93,29.47 -14.22,29.78 -14.59,29.99 -14.96,30.19 -15.38,30.26 -15.80,30.34 -16.22,30.27 -16.64,30.21 -17.02,30.02 -17.40,29.82 -17.69,29.52 -17.99,29.21 -18.17,28.83 -18.35,28.45 -18.41,28.02 -18.46,27.60 -18.37,27.19 -18.29,26.77 -18.07,26.40 -17.86,26.04 -17.54,25.76 -17.22,25.48 -16.82,25.32 -16.43,25.15 -16.01,25.12 -15.58,25.10 -15.17,25.20 -14.76,25.31 -14.76,25.31 -14.76,25.31 -10.97,26.62 -7.18,27.93 -3.07,28.30 1.04,28.67 5.38,28.07 9.72,27.46 12.86,26.30 16.00,25.15 16.49,22.98 16.97,20.81 14.01,19.17 11.05,17.52 5.79,15.84 0.53,14.15 -4.50,12.21 -9.55,10.28 -13.05,7.75 -16.56,5.23 -17.97,2.23 -19.38,-0.77 -18.68,-3.88 -17.98,-6.99 -16.00,-9.18 -14.01,-11.36 -10.79,-12.93 -7.57,-14.50 -4.13,-14.23 -0.68,-13.96 1.53,-11.93 3.76,-9.90 4.07,-7.39 4.38,-4.89 3.93,-2.15 3.47,0.57 3.35,0.98 3.23,1.39 3.02,1.76 2.80,2.12 2.51,2.43 2.21,2.73 1.85,2.96 1.49,3.18 1.09,3.32 0.69,3.45 0.26,3.48 -0.15,3.51 -0.57,3.44 -0.99,3.37 -1.38,3.21 -1.77,3.04 -2.11,2.78 -2.45,2.53 -2.71,2.20 -2.98,1.87 -3.16,1.48 -3.34,1.10 -3.42,0.68 -3.51,0.26 -3.49,-0.15 -3.47,-0.57 -3.47,-0.57 L -3.47,-0.57 Z"></path></g><g transform="translate(260.2347930890852 242.81338344364252) rotate(0 7.918822566110293 13.857939490692956)" stroke="none"><path fill="#1e1e1e" d="M 2.11,-2.81 Q 2.11,-2.81 3.95,-1.43 5.79,-0.04 7.84,2.74 9.90,5.52 11.47,9.14 13.05,12.75 14.36,16.28 15.66,19.80 16.46,22.25 17.25,24.69 16.92,25.34 16.59,25.99 16.97,26.17 17.35,26.36 17.65,26.66 17.96,26.96 18.15,27.34 18.34,27.72 18.40,28.14 18.46,28.56 18.38,28.97 18.30,29.39 18.10,29.76 17.89,30.14 17.58,30.42 17.26,30.71 16.87,30.88 16.48,31.05 16.06,31.08 15.64,31.12 15.22,31.02 14.81,30.92 14.45,30.70 14.09,30.47 13.82,30.14 13.55,29.81 13.41,29.41 13.26,29.01 13.24,28.59 13.23,28.16 13.35,27.76 13.47,27.35 13.72,27.00 13.96,26.66 14.31,26.41 14.65,26.16 15.06,26.03 15.46,25.90 15.89,25.91 16.31,25.92 16.71,26.06 17.11,26.21 17.44,26.47 17.78,26.74 18.01,27.09 18.24,27.45 18.34,27.86 18.45,28.27 18.42,28.70 18.39,29.12 18.22,29.51 18.05,29.90 17.77,30.22 17.49,30.54 17.12,30.75 16.75,30.96 16.34,31.05 15.92,31.13 15.50,31.07 15.08,31.02 15.08,31.02 15.08,31.02 12.81,28.94 10.55,26.87 9.80,24.56 9.06,22.25 7.81,18.88 6.56,15.50 5.34,12.52 4.12,9.54 2.80,7.52 1.49,5.51 -0.31,4.16 -2.11,2.81 -2.41,2.52 -2.72,2.23 -2.95,1.87 -3.18,1.51 -3.31,1.11 -3.45,0.70 -3.48,0.28 -3.51,-0.13 -3.45,-0.55 -3.38,-0.97 -3.21,-1.36 -3.05,-1.75 -2.79,-2.09 -2.54,-2.43 -2.21,-2.70 -1.88,-2.97 -1.50,-3.15 -1.11,-3.33 -0.70,-3.42 -0.28,-3.51 0.13,-3.49 0.56,-3.47 0.96,-3.35 1.37,-3.24 1.74,-3.02 2.11,-2.81 2.11,-2.81 L 2.11,-2.81 Z"></path></g><g transform="translate(289.53443658369326 247.56467698330863) rotate(0 -15.837645132220587 4.7512935396662215)" stroke="none"><path fill="#1e1e1e" d="M 0.82,3.42 Q 0.82,3.42 -4.86,4.79 -10.56,6.15 -16.49,8.06 -22.42,9.97 -28.23,11.38 -34.03,12.79 -34.45,12.85 -34.87,12.92 -35.29,12.84 -35.71,12.77 -36.08,12.56 -36.45,12.36 -36.74,12.05 -37.03,11.74 -37.20,11.35 -37.38,10.96 -37.42,10.54 -37.46,10.12 -37.36,9.70 -37.27,9.29 -37.04,8.93 -36.82,8.57 -36.49,8.29 -36.16,8.02 -35.77,7.87 -35.37,7.72 -34.95,7.70 -34.52,7.68 -34.11,7.80 -33.71,7.92 -33.36,8.16 -33.01,8.40 -32.76,8.75 -32.50,9.09 -32.37,9.49 -32.24,9.90 -32.25,10.32 -32.25,10.75 -32.39,11.15 -32.53,11.55 -32.79,11.88 -33.05,12.22 -33.41,12.45 -33.76,12.69 -34.17,12.80 -34.59,12.90 -35.01,12.88 -35.43,12.85 -35.83,12.69 -36.22,12.52 -36.54,12.24 -36.86,11.97 -37.07,11.60 -37.29,11.23 -37.38,10.82 -37.46,10.40 -37.41,9.98 -37.36,9.56 -37.18,9.17 -36.99,8.79 -36.70,8.48 -36.40,8.18 -36.02,7.98 -35.65,7.79 -35.65,7.79 -35.65,7.79 -30.11,5.53 -24.58,3.27 -18.39,1.28 -12.20,-0.69 -6.51,-2.05 -0.82,-3.42 -0.40,-3.47 0.02,-3.52 0.44,-3.46 0.86,-3.41 1.25,-3.26 1.65,-3.10 2.00,-2.86 2.35,-2.62 2.63,-2.30 2.91,-1.98 3.10,-1.60 3.30,-1.22 3.40,-0.81 3.49,-0.40 3.49,0.02 3.49,0.44 3.38,0.85 3.28,1.26 3.08,1.64 2.88,2.01 2.60,2.33 2.31,2.65 1.96,2.88 1.61,3.12 1.21,3.27 0.82,3.42 0.82,3.42 L 0.82,3.42 Z"></path></g><g transform="translate(329.12854941424473 230.93514959447708) rotate(0 9.502587079332216 13.066057234081995)" stroke="none"><path fill="#1e1e1e" d="M -3.21,-1.43 Q -3.21,-1.43 -2.31,-3.46 -1.40,-5.50 -0.70,-7.52 -0.01,-9.54 -1.13,-6.56 -2.25,-3.59 -2.60,0.09 -2.95,3.78 -2.68,8.20 -2.41,12.62 -1.43,16.83 -0.46,21.04 1.40,24.58 3.26,28.12 5.77,30.45 8.27,32.79 10.52,33.43 12.76,34.07 14.69,32.65 16.62,31.23 17.98,28.18 19.33,25.14 20.25,21.66 21.17,18.18 22.36,14.38 23.55,10.58 23.70,10.18 23.84,9.78 24.11,9.45 24.38,9.12 24.74,8.89 25.10,8.67 25.51,8.56 25.92,8.46 26.34,8.50 26.77,8.53 27.16,8.70 27.55,8.87 27.86,9.16 28.18,9.44 28.39,9.81 28.60,10.18 28.67,10.60 28.75,11.02 28.69,11.44 28.64,11.86 28.45,12.24 28.26,12.62 27.95,12.92 27.65,13.22 27.27,13.41 26.89,13.59 26.47,13.65 26.05,13.71 25.63,13.63 25.21,13.54 24.85,13.33 24.48,13.12 24.19,12.81 23.91,12.49 23.74,12.10 23.58,11.71 23.54,11.28 23.51,10.86 23.61,10.45 23.72,10.04 23.95,9.68 24.18,9.32 24.51,9.06 24.84,8.79 25.24,8.65 25.64,8.50 26.06,8.49 26.49,8.48 26.90,8.61 27.30,8.73 27.65,8.98 27.99,9.23 28.24,9.58 28.48,9.92 28.61,10.33 28.73,10.73 28.72,11.16 28.71,11.58 28.71,11.58 28.71,11.58 28.33,15.82 27.96,20.06 26.76,24.24 25.56,28.42 23.01,32.68 20.46,36.95 16.41,38.80 12.35,40.65 8.03,39.35 3.70,38.04 0.38,34.73 -2.92,31.42 -5.12,27.03 -7.31,22.64 -8.37,17.84 -9.44,13.03 -9.70,8.03 -9.95,3.02 -9.39,-1.53 -8.83,-6.09 -7.26,-9.49 -5.69,-12.90 -3.35,-14.17 -1.00,-15.44 1.88,-14.11 4.76,-12.79 5.41,-10.16 6.05,-7.54 5.55,-5.11 5.04,-2.68 4.13,-0.62 3.21,1.43 3.00,1.79 2.78,2.15 2.48,2.46 2.18,2.76 1.82,2.98 1.46,3.20 1.05,3.33 0.65,3.46 0.22,3.48 -0.19,3.51 -0.61,3.44 -1.03,3.36 -1.42,3.19 -1.80,3.02 -2.14,2.76 -2.47,2.50 -2.74,2.16 -3.00,1.83 -3.18,1.44 -3.35,1.06 -3.43,0.64 -3.51,0.22 -3.49,-0.19 -3.46,-0.61 -3.34,-1.02 -3.21,-1.43 -3.21,-1.43 L -3.21,-1.43 Z"></path></g><g transform="translate(341.00678326341006 244.39714795686456) rotate(0 13.461998362387476 7.522881437804756)" stroke="none"><path fill="#1e1e1e" d="M -1.57,-3.15 Q -1.57,-3.15 0.71,-4.29 3.00,-5.43 5.49,-6.05 7.99,-6.67 10.97,-6.67 13.94,-6.67 17.34,-5.09 20.74,-3.51 23.29,-0.67 25.84,2.15 27.23,6.01 28.62,9.88 27.70,13.27 26.77,16.66 24.70,18.65 22.63,20.65 22.31,20.93 21.99,21.22 21.60,21.38 21.21,21.55 20.79,21.58 20.37,21.62 19.95,21.51 19.54,21.41 19.18,21.18 18.83,20.95 18.56,20.62 18.29,20.29 18.15,19.89 18.00,19.49 17.99,19.06 17.98,18.64 18.11,18.23 18.23,17.83 18.48,17.48 18.73,17.14 19.08,16.89 19.42,16.64 19.83,16.52 20.24,16.40 20.66,16.41 21.08,16.42 21.48,16.57 21.88,16.72 22.21,16.98 22.54,17.25 22.77,17.61 23.00,17.97 23.10,18.38 23.20,18.79 23.17,19.22 23.13,19.64 22.96,20.03 22.79,20.42 22.51,20.74 22.22,21.05 21.85,21.26 21.48,21.47 21.07,21.55 20.65,21.63 20.23,21.57 19.81,21.51 19.43,21.32 19.05,21.13 18.75,20.83 18.45,20.53 18.26,20.15 18.07,19.77 18.01,19.34 17.96,18.92 18.04,18.51 18.12,18.09 18.33,17.72 18.54,17.35 18.54,17.35 18.54,17.35 20.26,14.24 21.99,11.12 21.19,8.84 20.39,6.56 18.86,4.59 17.34,2.61 15.44,1.44 13.53,0.27 9.82,0.58 6.10,0.88 3.84,2.01 1.57,3.15 1.17,3.29 0.77,3.43 0.35,3.47 -0.06,3.52 -0.48,3.46 -0.91,3.40 -1.30,3.24 -1.69,3.08 -2.04,2.83 -2.38,2.58 -2.66,2.26 -2.93,1.94 -3.12,1.56 -3.31,1.18 -3.41,0.76 -3.50,0.35 -3.49,-0.06 -3.48,-0.49 -3.37,-0.90 -3.26,-1.31 -3.06,-1.68 -2.85,-2.05 -2.57,-2.36 -2.28,-2.68 -1.92,-2.91 -1.57,-3.15 -1.57,-3.15 L -1.57,-3.15 Z"></path></g><g transform="translate(374.2658380410734 217.4731512320896) rotate(0 8.710704822721254 13.066057234081882)" stroke="none"><path fill="#1e1e1e" d="M -3.23,-1.38 Q -3.23,-1.38 -2.54,-2.99 -1.85,-4.59 -1.34,-5.26 -0.83,-5.92 -0.62,-6.29 -0.40,-6.66 -0.11,-6.96 0.18,-7.27 0.53,-7.50 0.89,-7.72 1.30,-7.86 1.70,-7.99 2.12,-8.02 2.55,-8.06 2.97,-7.99 3.38,-7.92 3.77,-7.75 4.16,-7.58 4.50,-7.33 4.84,-7.07 5.11,-6.74 5.38,-6.41 5.56,-6.03 5.74,-5.64 5.82,-5.23 5.91,-4.81 5.89,-4.39 5.87,-3.96 5.75,-3.56 5.63,-3.15 8.30,2.37 10.97,7.89 12.84,12.72 14.71,17.55 16.38,21.13 18.06,24.72 18.53,25.66 19.01,26.60 19.10,26.90 19.20,27.20 19.22,27.52 19.25,27.83 19.20,28.15 19.14,28.46 19.02,28.75 18.89,29.04 18.70,29.29 18.51,29.54 18.26,29.74 18.01,29.94 17.73,30.07 17.44,30.21 17.13,30.27 16.82,30.33 16.50,30.32 16.19,30.30 15.88,30.21 15.58,30.12 15.31,29.96 15.03,29.80 14.81,29.58 14.58,29.36 14.41,29.09 14.24,28.82 14.43,27.42 14.62,26.01 14.95,25.73 15.27,25.46 15.67,25.30 16.06,25.15 16.49,25.12 16.91,25.10 17.32,25.21 17.73,25.33 18.08,25.57 18.43,25.81 18.69,26.14 18.95,26.48 19.08,26.88 19.22,27.29 19.22,27.71 19.22,28.14 19.08,28.54 18.94,28.94 18.69,29.28 18.43,29.62 18.08,29.86 17.73,30.10 17.32,30.21 16.91,30.32 16.48,30.30 16.06,30.28 15.66,30.12 15.27,29.96 14.95,29.69 14.62,29.41 14.40,29.05 14.18,28.68 14.09,28.27 14.00,27.85 14.05,27.43 14.09,27.01 14.27,26.62 14.45,26.24 14.74,25.93 15.04,25.62 15.41,25.42 15.79,25.22 16.21,25.15 16.63,25.08 17.05,25.15 17.47,25.22 17.84,25.42 18.22,25.62 18.51,25.93 18.80,26.24 18.98,26.62 19.16,27.01 19.20,27.43 19.25,27.86 19.16,28.27 19.06,28.69 19.03,27.64 19.00,26.60 19.10,26.90 19.20,27.20 19.22,27.52 19.25,27.83 19.20,28.15 19.14,28.46 19.02,28.75 18.89,29.04 18.70,29.29 18.51,29.54 18.26,29.74 18.01,29.94 17.73,30.07 17.44,30.21 17.13,30.27 16.82,30.33 16.50,30.32 16.19,30.30 15.88,30.21 15.58,30.12 15.31,29.96 15.03,29.80 14.81,29.58 14.58,29.36 14.41,29.09 14.24,28.82 12.96,28.26 11.68,27.70 9.91,23.90 8.14,20.09 6.19,15.04 4.24,9.98 2.55,4.36 0.86,-1.25 0.01,-3.59 -0.83,-5.92 -0.62,-6.29 -0.40,-6.66 -0.11,-6.96 0.17,-7.27 0.53,-7.50 0.89,-7.72 1.30,-7.86 1.70,-7.99 2.12,-8.02 2.55,-8.06 2.96,-7.99 3.38,-7.92 3.77,-7.75 4.16,-7.58 4.50,-7.33 4.84,-7.07 5.11,-6.74 5.38,-6.41 5.56,-6.03 5.74,-5.65 5.82,-5.23 5.91,-4.81 5.89,-4.39 5.87,-3.96 5.75,-3.56 5.63,-3.15 5.11,-2.46 4.58,-1.77 3.91,-0.19 3.23,1.38 3.02,1.75 2.81,2.12 2.51,2.42 2.22,2.73 1.86,2.95 1.50,3.18 1.10,3.31 0.69,3.45 0.27,3.48 -0.14,3.51 -0.56,3.45 -0.98,3.38 -1.37,3.21 -1.76,3.04 -2.10,2.79 -2.44,2.53 -2.71,2.20 -2.98,1.87 -3.16,1.49 -3.34,1.10 -3.42,0.69 -3.51,0.27 -3.49,-0.14 -3.47,-0.57 -3.35,-0.98 -3.23,-1.38 -3.23,-1.38 L -3.23,-1.38 Z"></path></g><g transform="translate(371.0983090146291 192.1329190205367) rotate(0 3.563470154749666 4.35535241136057)" stroke="none"><path fill="#1e1e1e" d="M 1.30,-3.27 Q 1.30,-3.27 2.63,-2.65 3.95,-2.03 5.80,0.57 7.66,3.18 8.62,7.08 9.59,10.98 9.67,11.40 9.75,11.81 9.69,12.23 9.63,12.65 9.44,13.03 9.25,13.41 8.95,13.71 8.65,14.01 8.26,14.20 7.88,14.39 7.46,14.44 7.04,14.50 6.62,14.42 6.21,14.33 5.84,14.12 5.47,13.91 5.19,13.60 4.90,13.28 4.74,12.89 4.57,12.50 4.54,12.07 4.50,11.65 4.61,11.24 4.71,10.83 4.94,10.47 5.17,10.11 5.51,9.85 5.84,9.58 6.24,9.44 6.64,9.29 7.06,9.28 7.49,9.27 7.89,9.40 8.30,9.53 8.64,9.77 8.99,10.02 9.23,10.37 9.48,10.72 9.60,11.12 9.73,11.53 9.71,11.95 9.70,12.38 9.55,12.78 9.40,13.18 9.14,13.51 8.87,13.84 8.51,14.06 8.15,14.29 7.74,14.39 7.32,14.49 6.90,14.46 6.48,14.42 6.09,14.25 5.70,14.08 5.38,13.80 5.07,13.51 4.86,13.14 4.65,12.77 4.65,12.77 4.65,12.77 2.62,8.31 0.59,3.85 -0.35,3.56 -1.30,3.27 -1.68,3.06 -2.05,2.86 -2.36,2.57 -2.67,2.28 -2.91,1.93 -3.14,1.58 -3.29,1.18 -3.43,0.78 -3.47,0.35 -3.52,-0.06 -3.46,-0.48 -3.40,-0.90 -3.24,-1.29 -3.08,-1.69 -2.84,-2.03 -2.59,-2.38 -2.27,-2.65 -1.94,-2.93 -1.56,-3.12 -1.18,-3.31 -0.77,-3.40 -0.36,-3.50 0.06,-3.49 0.48,-3.48 0.89,-3.37 1.30,-3.27 1.30,-3.27 L 1.30,-3.27 Z"></path></g><g transform="translate(417.8193621546799 201.63550609986902) rotate(0 10.690410464248885 16.233586260526067)" stroke="none"><path fill="#1e1e1e" d="M -0.49,-3.48 Q -0.49,-3.48 2.39,-3.01 5.29,-2.53 6.96,0.16 8.64,2.86 10.11,7.52 11.59,12.18 13.31,17.21 15.02,22.24 16.82,26.03 18.62,29.82 20.34,31.46 22.05,33.09 22.44,33.27 22.83,33.44 23.14,33.73 23.45,34.02 23.65,34.39 23.86,34.77 23.93,35.18 24.00,35.60 23.94,36.02 23.87,36.44 23.68,36.82 23.48,37.20 23.18,37.49 22.87,37.79 22.49,37.97 22.10,38.15 21.68,38.20 21.26,38.25 20.84,38.17 20.43,38.08 20.06,37.86 19.70,37.65 19.42,37.33 19.14,37.01 18.98,36.61 18.82,36.22 18.79,35.80 18.76,35.37 18.87,34.96 18.98,34.55 19.22,34.20 19.45,33.84 19.79,33.58 20.12,33.32 20.52,33.18 20.92,33.04 21.35,33.04 21.77,33.03 22.18,33.17 22.58,33.30 22.92,33.55 23.26,33.80 23.51,34.15 23.75,34.50 23.87,34.91 23.98,35.32 23.97,35.74 23.95,36.17 23.79,36.56 23.64,36.96 23.37,37.29 23.10,37.61 22.73,37.84 22.37,38.06 21.96,38.16 21.54,38.25 21.12,38.21 20.70,38.17 20.70,38.17 20.70,38.17 18.11,37.63 15.53,37.10 13.89,34.97 12.26,32.85 10.31,28.68 8.36,24.52 6.61,19.40 4.87,14.29 3.56,10.07 2.26,5.85 1.67,3.74 1.08,1.62 0.78,2.55 0.49,3.48 0.07,3.49 -0.35,3.50 -0.76,3.41 -1.17,3.31 -1.55,3.12 -1.93,2.94 -2.26,2.66 -2.58,2.39 -2.83,2.04 -3.08,1.70 -3.24,1.30 -3.40,0.91 -3.46,0.49 -3.52,0.07 -3.47,-0.34 -3.43,-0.77 -3.29,-1.17 -3.15,-1.57 -2.91,-1.92 -2.68,-2.27 -2.37,-2.56 -2.06,-2.85 -1.68,-3.06 -1.31,-3.26 -0.90,-3.37 -0.49,-3.48 -0.49,-3.48 L -0.49,-3.48 Z"></path></g><g transform="translate(441.57582985301076 192.92480127714765) rotate(0 -19.797056415275733 5.93911692458272)" stroke="none"><path fill="#1e1e1e" d="M -3.52,0 Q -3.52,0 -2.97,-2.30 -2.42,-4.61 -5.76,-2.36 -9.10,-0.12 -14.12,4.67 -19.14,9.46 -28.49,17.19 -37.84,24.92 -38.20,25.15 -38.56,25.38 -38.97,25.48 -39.39,25.58 -39.81,25.54 -40.23,25.51 -40.62,25.34 -41.01,25.17 -41.33,24.88 -41.64,24.60 -41.85,24.23 -42.06,23.86 -42.14,23.44 -42.22,23.02 -42.16,22.60 -42.10,22.18 -41.91,21.80 -41.72,21.42 -41.42,21.12 -41.11,20.82 -40.73,20.63 -40.35,20.45 -39.93,20.39 -39.51,20.33 -39.09,20.42 -38.67,20.50 -38.30,20.71 -37.94,20.92 -37.65,21.24 -37.37,21.55 -37.20,21.94 -37.04,22.34 -37.00,22.76 -36.97,23.18 -37.08,23.59 -37.18,24.01 -37.41,24.36 -37.64,24.72 -37.97,24.99 -38.31,25.25 -38.70,25.40 -39.10,25.54 -39.53,25.55 -39.95,25.56 -40.36,25.43 -40.77,25.31 -41.11,25.06 -41.45,24.81 -41.70,24.46 -41.95,24.12 -42.07,23.71 -42.19,23.30 -42.18,22.88 -42.17,22.45 -42.02,22.06 -41.87,21.66 -41.60,21.33 -41.34,21.00 -41.34,21.00 -41.34,21.00 -32.66,12.68 -23.99,4.35 -18.55,-0.77 -13.11,-5.91 -8.51,-8.55 -3.91,-11.19 -0.74,-9.66 2.42,-8.13 2.97,-4.06 3.52,0 3.47,0.42 3.41,0.84 3.26,1.23 3.11,1.63 2.87,1.98 2.63,2.33 2.31,2.61 2.00,2.89 1.62,3.09 1.24,3.29 0.83,3.39 0.42,3.49 -0.00,3.49 -0.42,3.49 -0.83,3.39 -1.24,3.29 -1.62,3.09 -2.00,2.89 -2.31,2.61 -2.63,2.33 -2.87,1.98 -3.11,1.63 -3.26,1.23 -3.41,0.84 -3.47,0.42 -3.52,-0.00 -3.52,-0.00 L -3.52,0 Z"></path></g><g transform="translate(185.87603550939025 364.7562017485797) rotate(0 0.00005000000000165983 0.00005000000000165983)" stroke="none"><path fill="#1e1e1e" d="M 3.14,-3.14 Q 3.14,-3.14 3.55,-2.55 3.97,-1.97 4.18,-1.28 4.40,-0.59 4.38,0.11 4.36,0.83 4.11,1.51 3.86,2.18 3.41,2.74 2.96,3.30 2.36,3.69 1.75,4.08 1.05,4.25 0.36,4.42 -0.35,4.36 -1.07,4.31 -1.73,4.02 -2.39,3.74 -2.92,3.26 -3.46,2.78 -3.81,2.15 -4.16,1.53 -4.30,0.82 -4.43,0.11 -4.34,-0.59 -4.24,-1.30 -3.92,-1.94 -3.60,-2.59 -3.09,-3.09 -2.59,-3.60 -1.94,-3.92 -1.30,-4.24 -0.59,-4.34 0.12,-4.43 0.82,-4.30 1.53,-4.16 2.15,-3.81 2.78,-3.46 3.26,-2.92 3.74,-2.39 4.02,-1.73 4.31,-1.07 4.36,-0.35 4.42,0.36 4.25,1.05 4.07,1.75 3.69,2.36 3.30,2.96 2.74,3.41 2.18,3.86 1.51,4.11 0.83,4.36 0.11,4.38 -0.60,4.40 -1.28,4.18 -1.97,3.97 -2.55,3.55 -3.14,3.13 -3.14,3.14 -3.14,3.14 -3.47,2.71 -3.80,2.29 -4.02,1.80 -4.24,1.32 -4.33,0.79 -4.43,0.26 -4.40,-0.26 -4.36,-0.80 -4.20,-1.31 -4.04,-1.82 -3.77,-2.28 -3.49,-2.73 -3.11,-3.11 -2.73,-3.49 -2.28,-3.77 -1.82,-4.05 -1.31,-4.20 -0.80,-4.36 -0.26,-4.40 0.26,-4.43 0.79,-4.33 1.32,-4.24 1.80,-4.02 2.29,-3.80 2.71,-3.47 3.14,-3.14 3.14,-3.14 L 3.14,-3.14 Z"></path></g><g transform="translate(257.0672640626409 376.64148481090643) rotate(0 48.700758781578315 18.213291902053584)" stroke="none"><path fill="#1e1e1e" d="M 3.15,1.57 Q 3.15,1.57 2.21,3.42 1.28,5.27 -2.39,7.49 -6.06,9.71 -8.09,8.07 -10.11,6.43 -7.41,1.71 -4.70,-3.01 -1.17,-4.96 2.35,-6.90 7.14,-8.03 11.92,-9.15 16.87,-8.53 21.81,-7.91 25.15,-4.59 28.48,-1.26 29.42,4.34 30.35,9.96 29.21,16.17 28.07,22.37 26.38,27.09 24.70,31.81 23.81,34.47 22.92,37.12 29.76,38.22 36.60,39.31 44.35,38.84 52.09,38.36 59.57,36.82 67.05,35.29 73.49,32.88 79.93,30.46 85.24,28.91 90.55,27.35 94.59,27.81 98.63,28.27 102.59,30.79 106.56,33.31 106.89,33.57 107.23,33.83 107.47,34.18 107.70,34.54 107.82,34.95 107.93,35.36 107.90,35.78 107.88,36.21 107.72,36.60 107.56,36.99 107.28,37.32 107.01,37.64 106.64,37.86 106.28,38.07 105.86,38.16 105.45,38.25 105.02,38.21 104.60,38.16 104.22,37.98 103.83,37.80 103.52,37.50 103.22,37.21 103.02,36.83 102.82,36.46 102.76,36.04 102.69,35.62 102.76,35.20 102.83,34.78 103.03,34.41 103.23,34.03 103.54,33.74 103.85,33.45 104.24,33.27 104.62,33.10 105.05,33.05 105.47,33.01 105.88,33.10 106.30,33.19 106.66,33.41 107.03,33.64 107.30,33.96 107.57,34.29 107.73,34.68 107.88,35.08 107.90,35.50 107.93,35.93 107.81,36.33 107.69,36.74 107.45,37.09 107.21,37.45 106.87,37.70 106.53,37.96 106.13,38.09 105.73,38.22 105.30,38.22 104.88,38.22 104.48,38.08 104.07,37.94 104.07,37.94 104.07,37.94 100.76,36.57 97.45,35.19 94.86,34.66 92.26,34.13 87.32,35.60 82.38,37.07 75.42,39.63 68.47,42.19 60.49,43.79 52.52,45.39 44.25,45.86 35.98,46.33 30.02,45.70 24.05,45.08 20.82,43.19 17.59,41.30 16.89,38.32 16.20,35.34 17.14,32.38 18.07,29.42 19.62,25.21 21.16,21.00 22.26,15.85 23.36,10.69 23.14,6.71 22.92,2.73 21.39,0.62 19.87,-1.49 16.59,-1.88 13.31,-2.26 9.47,-1.47 5.62,-0.68 2.77,0.80 -0.08,2.29 -2.50,2.15 -4.92,2.00 -4.03,0.21 -3.15,-1.57 -2.91,-1.92 -2.68,-2.28 -2.36,-2.57 -2.05,-2.85 -1.68,-3.06 -1.31,-3.26 -0.90,-3.37 -0.49,-3.48 -0.06,-3.49 0.35,-3.50 0.76,-3.41 1.18,-3.31 1.56,-3.12 1.94,-2.93 2.26,-2.66 2.59,-2.38 2.83,-2.04 3.08,-1.69 3.24,-1.30 3.40,-0.90 3.46,-0.48 3.52,-0.06 3.47,0.35 3.43,0.77 3.29,1.17 3.15,1.57 3.15,1.57 L 3.15,1.57 Z"></path></g></svg>